<svg id="Dog" xmlns="http://www.w3.org/2000/svg" xmlns:xlink="http://www.w3.org/1999/xlink" viewBox="0 0 800 450"><defs><style>.cls-1{fill:none;}.cls-2,.cls-3{fill:#ffba02;}.cls-14,.cls-16,.cls-3{opacity:0.5;}.cls-4{clip-path:url(#clip-path);}.cls-5{fill:#bb9167;}.cls-6{fill:#3a96dd;}.cls-7{fill:#83beec;}.cls-8{fill:#1f1f1f;}.cls-9{fill:#8e562e;}.cls-10{fill:#f7630c;}.cls-11{fill:#ca5010;}.cls-12{fill:#383838;}.cls-13{fill:#f7b189;}.cls-14,.cls-15{fill:#fe4342;}.cls-16,.cls-17{fill:#31d2f7;}.cls-18{clip-path:url(#clip-path-2);}.cls-19{fill:#613d30;}.cls-20{fill:#b3dbf2;}.cls-21{fill:#d48c00;}.cls-22{fill:#e5e5e5;}.cls-23{fill:#f7894a;}.cls-24{fill:#d8b094;}.cls-25{fill:#4a5459;}.cls-26{fill:#69797e;}.cls-27{fill:#859599;}.cls-28{fill:#f2f2f2;}.cls-29{clip-path:url(#clip-path-3);}.cls-30{fill:#ccc;}.cls-31{fill:#f03a17;}.cls-32{fill:#da3b01;}.cls-33{opacity:0.1;}.cls-34{fill:#0078d7;}.cls-35{fill:#eaeaea;}.cls-36{fill:#353e42;}.cls-37{fill:#e81224;}.cls-38{fill:#fff;}.cls-39{fill:#757575;}</style><clipPath id="clip-path"><circle class="cls-1" cx="528.41" cy="260.42" r="45.46"/></clipPath><clipPath id="clip-path-2"><circle class="cls-1" cx="279.61" cy="178.94" r="53.04"/></clipPath><clipPath id="clip-path-3"><circle class="cls-1" cx="488.13" cy="95.82" r="53.04"/></clipPath></defs><title>20180606_Family_SignedOut_01_SignedOut_Hero</title><circle class="cls-2" cx="528.41" cy="260.42" r="45.46"/><polygon class="cls-3" points="506.41 300.21 409.52 232.53 411.36 221.89 520.37 215.68 506.41 300.21"/><g class="cls-4"><path class="cls-5" d="M534.06,274.12v2.45a2,2,0,0,0,2,2h1.51v10.79h-20.3V278.58h1.52a2,2,0,0,0,2-2v-2.45Z"/><path class="cls-5" d="M546.41,246.4a19,19,0,0,0-38,0H507a2.92,2.92,0,0,0-2.92,2.92v5.85a2.92,2.92,0,0,0,2.92,2.92h1.46a19,19,0,0,0,38,0h1.46a2.92,2.92,0,0,0,2.92-2.92v-5.85a2.92,2.92,0,0,0-2.92-2.92Z"/><path class="cls-5" d="M576.42,304.07l-11.69-11.69-10.34,10.34,11.7,11.69a7.31,7.31,0,0,0,10.33-10.34Z"/><rect class="cls-6" x="504.03" y="310.7" width="43.84" height="32.15"/><path class="cls-7" d="M543.48,278.56l4.39,32.14H504l7.32-32.14h7.31a8.77,8.77,0,0,0,17.53,0Z"/><path class="cls-8" d="M518.05,249.32a2.93,2.93,0,1,0,2.92,2.93A2.93,2.93,0,0,0,518.05,249.32Z"/><path class="cls-8" d="M536.77,249.32a2.93,2.93,0,1,0,2.93,2.93A2.93,2.93,0,0,0,536.77,249.32Z"/><path class="cls-9" d="M524.49,259.55a2.92,2.92,0,1,0,5.84,0"/><path class="cls-9" d="M527.41,271.24a12.76,12.76,0,0,1-9.89-4.91,1.46,1.46,0,1,1,2.25-1.86,9.93,9.93,0,0,0,7.64,3.85,1.46,1.46,0,1,1,0,2.92Z"/><polyline class="cls-9" points="527.41 227.4 543.49 227.4 539.1 231.79 549.33 231.79 543.49 237.63"/><path class="cls-9" d="M546.41,246.4a19,19,0,0,0-38,0l7.31-7.31H539.1Z"/><path class="cls-5" d="M495.26,303.39v17.54a7.31,7.31,0,1,0,14.61,0V303.39Z"/><path class="cls-5" d="M528.87,341.39a7.36,7.36,0,0,1-3.27-.77l-26.3-13.15a7.31,7.31,0,0,1,6.53-13.08l26.31,13.16a7.31,7.31,0,0,1-3.27,13.84Z"/><path class="cls-8" d="M524.49,364.77v26.31H504V342.85h43.84v48.23H527.41V364.77a1.46,1.46,0,0,0-1.46-1.46h0A1.46,1.46,0,0,0,524.49,364.77Z"/><rect class="cls-5" x="505.49" y="391.08" width="17.54" height="27.77"/><rect class="cls-5" x="528.87" y="391.08" width="17.54" height="27.77"/><path class="cls-10" d="M505.49,424.69l-4.38,4.38a7.31,7.31,0,0,0-7.31,7.31v1.46H523v-19H505.49"/><rect class="cls-11" x="493.8" y="437.84" width="29.23" height="2.92"/><path class="cls-10" d="M546.41,424.69l4.38,4.38a7.31,7.31,0,0,1,7.31,7.31v1.46H528.87v-19h17.54"/><rect class="cls-11" x="528.87" y="437.84" width="29.23" height="2.92" transform="translate(1086.97 878.6) rotate(-180)"/><rect class="cls-12" x="504.03" y="388.15" width="20.46" height="2.92"/><rect class="cls-12" x="527.41" y="388.15" width="20.46" height="2.92"/><path class="cls-6" d="M539.11,278.56a11.7,11.7,0,0,1-23.39,0h2.93a8.77,8.77,0,0,0,17.53,0Z"/><path class="cls-13" d="M505.49,418.84a4.39,4.39,0,0,1,8.77,0v5.85h-8.77Z"/><path class="cls-13" d="M546.41,418.84a4.39,4.39,0,0,0-8.77,0v5.85h8.77Z"/><path class="cls-5" d="M558.1,342.85h-5.85a7.31,7.31,0,0,1,0-14.61h1.33L564.72,306a7.31,7.31,0,1,1,13.07,6.54l-13.16,26.3A7.28,7.28,0,0,1,558.1,342.85Z"/><path class="cls-5" d="M528.87,328.24H520.1a2.93,2.93,0,0,1,0-5.85h8.77a2.93,2.93,0,1,1,0,5.85Z"/><path class="cls-5" d="M556.64,334.08a2.91,2.91,0,0,1-2.07-.85l-4.38-4.39a2.92,2.92,0,0,1,4.13-4.13l4.38,4.38a2.92,2.92,0,0,1-2.06,5Z"/><path class="cls-7" d="M511.34,278.55a16.07,16.07,0,0,0-16.08,16.08v8.76h16.08Z"/><path class="cls-7" d="M543.48,278.55a16.07,16.07,0,0,1,16.07,16.08v8.76H543.48Z"/></g><polygon class="cls-14" points="523.97 135.29 411.36 221.89 407.3 216.4 436.53 85.54 523.97 135.29"/><circle class="cls-15" cx="488.57" cy="95.8" r="53.04"/><polygon class="cls-16" points="314.85 139.71 403.14 220.51 403.14 227.97 279.17 232 314.85 139.71"/><circle class="cls-17" cx="279.17" cy="178.96" r="53.04"/><g class="cls-18"><path id="Path_14224" data-name="Path 14224" class="cls-19" d="M313.36,171.53a33.79,33.79,0,0,0-67.57-1.19c0,.39,0,.79,0,1.19v49.19h67.65V171.53Z"/><rect id="Rectangle_9882" data-name="Rectangle 9882" class="cls-20" x="299.61" y="293.33" width="15.4" height="3.06"/><circle id="Ellipse_1339" data-name="Ellipse 1339" class="cls-21" cx="304.2" cy="281.07" r="1.53"/><circle id="Ellipse_1340" data-name="Ellipse 1340" class="cls-21" cx="304.2" cy="262.6" r="1.53"/><path id="Path_14219" data-name="Path 14219" class="cls-22" d="M301.14,437.84l4.6,4.6H287.35l-4.68-4.6Z"/><path id="Path_14220" data-name="Path 14220" class="cls-5" d="M244.29,450.1a7.65,7.65,0,0,1,7.65-7.66h20l4.6-4.6v13.87H244.29Z"/><path id="Path_14221" data-name="Path 14221" class="cls-7" d="M337.35,299.86a9.78,9.78,0,0,1-3-3.06l-17.66-29.52a9.24,9.24,0,0,1,15.88-9.44l17.66,29.52A9.24,9.24,0,0,1,347,300,9.1,9.1,0,0,1,337.35,299.86Z"/><path id="Path_14226" data-name="Path 14226" class="cls-22" d="M315,225.67l-7.74-19.92H252l-7.66,9.19v84.52H315Z"/><path id="Path_14228" data-name="Path 14228" class="cls-22" d="M258.16,437.84l-4.68,4.6H272l4.6-4.6Z"/><path id="Path_14229" data-name="Path 14229" class="cls-5" d="M315,450.1a7.65,7.65,0,0,0-7.65-7.66h-20l-4.6-4.6v13.87H315Z"/><path id="Path_14230" data-name="Path 14230" class="cls-22" d="M284.29,299.46H244.37l13.87,138.3h18.47V324.05a3.06,3.06,0,0,1,3.06-3.06h0a3.06,3.06,0,0,1,3.06,3.06h0V437.76H301.3l13.87-138.3Z"/><path id="Path_14231" data-name="Path 14231" class="cls-13" d="M244.29,299.46l-9.2,92.25H324.2L315,299.46"/><circle id="Ellipse_1341" data-name="Ellipse 1341" class="cls-23" cx="242.76" cy="376.31" r="6.13"/><circle id="Ellipse_1342" data-name="Ellipse 1342" class="cls-23" cx="255.01" cy="376.31" r="6.13"/><circle id="Ellipse_1343" data-name="Ellipse 1343" class="cls-23" cx="267.35" cy="376.31" r="6.13"/><circle id="Ellipse_1344" data-name="Ellipse 1344" class="cls-23" cx="279.61" cy="376.31" r="6.13"/><circle id="Ellipse_1345" data-name="Ellipse 1345" class="cls-23" cx="291.95" cy="376.31" r="6.13"/><circle id="Ellipse_1346" data-name="Ellipse 1346" class="cls-13" cx="304.2" cy="376.31" r="6.13"/><circle id="Ellipse_1347" data-name="Ellipse 1347" class="cls-13" cx="316.54" cy="376.31" r="6.13"/><g id="Group_34855" data-name="Group 34855"><path id="Path_14232" data-name="Path 14232" class="cls-23" d="M322.67,376.31h-86l-.65,6.21h87.34Z"/></g><g id="Group_34858" data-name="Group 34858"><path id="Path_14248" data-name="Path 14248" class="cls-7" d="M331.46,258.17,316.06,212a9.24,9.24,0,0,0-11.69-5.81h0a9.07,9.07,0,0,0-4.76,3.63v11.22L313.88,264a9.26,9.26,0,0,0,17.58-5.81Z"/></g><path id="Path_14249" data-name="Path 14249" class="cls-7" d="M307.11,205.75h-7.5v90.64H315V209.86A9.2,9.2,0,0,0,307.11,205.75Z"/><path id="Path_14250" data-name="Path 14250" class="cls-20" d="M307.27,205.75l-7.66,7.66V202.69h10.81Z"/><circle id="Ellipse_1350" data-name="Ellipse 1350" class="cls-21" cx="304.21" cy="244.14" r="1.53"/><path class="cls-24" d="M299.61,205.75a20,20,0,1,1-40,.85c0-.28,0-.56,0-.85h6.95a2.88,2.88,0,0,0,2.77-3v-6.11h20.56v6.11a2.88,2.88,0,0,0,2.76,3Z"/><path id="Path_14222" data-name="Path 14222" class="cls-20" d="M339.69,304.13a9.35,9.35,0,0,1-2.82-3.3l-2.75-5.4a9.42,9.42,0,1,1,16.78-8.55l2.74,5.4a9.4,9.4,0,0,1-13.95,11.85Z"/><path id="Path_14223" data-name="Path 14223" class="cls-24" d="M337.25,306.18a8.89,8.89,0,0,1-1.09-4.09l-.2-6.89a9.23,9.23,0,1,1,18.46-.49h0l.2,6.88a9.23,9.23,0,0,1-17.37,4.59Z"/><path id="Path_14218" data-name="Path 14218" class="cls-7" d="M252,205.75a9.18,9.18,0,0,0-7.66,4.11v41h0v45.48h15.4V220.18h0V205.75Z"/><path id="Path_14239" data-name="Path 14239" class="cls-24" d="M238.16,308.73H230.5a9.2,9.2,0,0,1,0-18.39h7.66a9.2,9.2,0,0,1,0,18.39Z"/><g id="Group_34856" data-name="Group 34856"><path id="Path_14241" data-name="Path 14241" class="cls-25" d="M262.75,253.41h3.07a1.53,1.53,0,0,1,1.53,1.53h0v40a1.53,1.53,0,0,1-1.53,1.54h-3.07Z"/><path id="Path_14242" data-name="Path 14242" class="cls-26" d="M261.22,253.41h1.53a1.53,1.53,0,0,1,1.54,1.53h0v40a1.54,1.54,0,0,1-1.53,1.54h-1.54Z"/><path id="Path_14243" data-name="Path 14243" class="cls-27" d="M212.11,253.41h49a1.61,1.61,0,0,1,1.61,1.61v39.84a1.61,1.61,0,0,1-1.61,1.61h-49a1.61,1.61,0,0,1-1.61-1.61V255A1.61,1.61,0,0,1,212.11,253.41Z"/><rect id="Rectangle_9885" data-name="Rectangle 9885" class="cls-8" x="264.29" y="256.47" width="1.53" height="3.06"/><rect id="Rectangle_9886" data-name="Rectangle 9886" class="cls-8" x="264.29" y="262.6" width="1.53" height="3.06"/><circle id="Ellipse_1348" data-name="Ellipse 1348" class="cls-8" cx="265.82" cy="286.39" r="0.81"/><circle id="Ellipse_1349" data-name="Ellipse 1349" class="cls-8" cx="265.82" cy="283.33" r="0.81"/></g><g id="Group_34857" data-name="Group 34857"><path id="Path_14244" data-name="Path 14244" class="cls-7" d="M256.06,206.72a9.2,9.2,0,0,0-12.34,4.11l-21.53,43.06a9.21,9.21,0,0,0-1,4.12v30.72a9.2,9.2,0,1,0,18.39,0V260.18l20-40V209.86A8.43,8.43,0,0,0,256.06,206.72Z"/></g><path id="Path_14245" data-name="Path 14245" class="cls-20" d="M230.42,299.46a10.73,10.73,0,0,1-10.73-10.72h0V282.6a10.73,10.73,0,0,1,21.45,0v6.13a10.61,10.61,0,0,1-10.51,10.73Z"/><path id="Path_14246" data-name="Path 14246" class="cls-24" d="M230.42,308.73a9.19,9.19,0,0,1-9.2-9.19h0V288.81a9.2,9.2,0,0,1,18.39,0v10.73a9.08,9.08,0,0,1-9,9.19Z"/><path id="Path_14247" data-name="Path 14247" class="cls-24" d="M235.09,296.39a3.1,3.1,0,0,1-3-2.34,3,3,0,0,1,2.22-3.7h0l6.13-1.53a3.07,3.07,0,0,1,1.45,6l-6.13,1.53A2,2,0,0,1,235.09,296.39Z"/><path id="Path_14251" data-name="Path 14251" class="cls-20" d="M252,205.75l7.74,7.66V202.69H248.88Z"/><path id="Path_14253" data-name="Path 14253" class="cls-20" d="M256.54,244.94h-3.06a.81.81,0,0,1,0-1.61h3.06a.81.81,0,1,1,0,1.61Z"/><g id="Group_34854-2" data-name="Group 34854-2"><path id="Path_14225" data-name="Path 14225" class="cls-24" d="M299.49,163.87H290.3a11.94,11.94,0,0,1-9.19-4.6L278,162.33V151.61c-6.29,7.58-15,12.26-24.59,12.26H253a26.46,26.46,0,0,0-1.13,7.66,27.66,27.66,0,0,0,55.31,0,7.66,7.66,0,0,0-7.66-7.66Z"/></g><path id="Path_14233" data-name="Path 14233" class="cls-11" d="M270.3,180h-7.66a3.87,3.87,0,0,1-3.87-3.87v-13h16.94v11.53A5.39,5.39,0,0,1,270.3,180Zm-10-15.32V176.2a2.34,2.34,0,0,0,2.34,2.34h7.66a3.87,3.87,0,0,0,3.87-3.87v-10Z"/><path id="Path_14234" data-name="Path 14234" class="cls-11" d="M296.43,180h-7.66a5.4,5.4,0,0,1-5.4-5.4h0V163.14H300.3V176.2A3.86,3.86,0,0,1,296.43,180ZM284.9,164.67v10a3.88,3.88,0,0,0,3.87,3.87h7.66a2.35,2.35,0,0,0,2.34-2.34V164.67Z"/><path id="Path_14235" data-name="Path 14235" class="cls-11" d="M283.53,169.75a5.18,5.18,0,0,0-4-2,5.34,5.34,0,0,0-4,2l-1.21-1a6.68,6.68,0,0,1,5.25-2.58,6.8,6.8,0,0,1,5.24,2.58Z"/><path class="cls-8" d="M267.24,168.5h0a3.07,3.07,0,0,0-3.07,3.06h0a3.07,3.07,0,1,0,3.07-3.07Z"/><path class="cls-8" d="M291.84,168.5h0a3.06,3.06,0,0,0-3.06,3.06h0a3.07,3.07,0,1,0,3.07-3.07Z"/><path id="Path_14238" data-name="Path 14238" class="cls-5" d="M276.43,177.74a3.07,3.07,0,0,0,6.13,0"/><path id="Path_14240" data-name="Path 14240" class="cls-28" d="M273.37,185.4a6.13,6.13,0,0,0,12.25,0"/></g><g class="cls-29"><path class="cls-5" d="M447.67,226.81v18a10.49,10.49,0,1,0,21,0v-18"/><path class="cls-9" d="M491.13,253.78a3,3,0,1,0-6,0h-27v-27H518.1v27Z"/><rect class="cls-9" x="458.16" y="246.29" width="26.97" height="106.4"/><path class="cls-20" d="M470.15,126.4a22.47,22.47,0,0,0-22.48,22.48v68.93h10.49v18h27l3-3,3,3h16.48v-18h21V148.88a22.47,22.47,0,0,0-22.48-22.48"/><path class="cls-5" d="M513.6,93.44a3,3,0,1,1,6,0v6a3,3,0,0,1-6,0Z"/><path class="cls-5" d="M456.66,93.44a3,3,0,1,1,6,0v6a3,3,0,1,1-6,0Z"/><rect class="cls-9" x="491.13" y="246.29" width="26.97" height="106.4"/><rect class="cls-7" x="447.67" y="217.81" width="10.49" height="8.99" transform="translate(905.83 444.62) rotate(-180)"/><path class="cls-5" d="M528.59,225.31v19.48a10.49,10.49,0,0,1-21,0V225.31"/><path class="cls-5" d="M506.11,244.79a2.92,2.92,0,0,1-.95-.16,3,3,0,0,1-1.89-3.79l4.49-13.48a3,3,0,1,1,5.69,1.89L509,242.74A3,3,0,0,1,506.11,244.79Z"/><rect class="cls-7" x="507.61" y="217.81" width="20.98" height="8.99"/><rect class="cls-19" x="491.13" y="349.69" width="26.97" height="8.99"/><rect class="cls-19" x="458.16" y="349.69" width="26.97" height="8.99"/><rect class="cls-7" x="475.79" y="118.78" width="6.7" height="16.75" transform="translate(151.13 498.84) rotate(-63.43)"/><rect class="cls-7" x="488.74" y="123.8" width="16.75" height="6.7" transform="translate(-4.38 235.74) rotate(-26.57)"/><circle class="cls-5" cx="488.13" cy="94.93" r="28.47"/><circle class="cls-7" cx="488.13" cy="138.39" r="1.5"/><circle class="cls-7" cx="488.13" cy="156.37" r="1.5"/><circle class="cls-7" cx="488.13" cy="174.36" r="1.5"/><circle class="cls-7" cx="488.13" cy="192.34" r="1.5"/><circle class="cls-7" cx="488.13" cy="210.32" r="1.5"/><circle class="cls-7" cx="488.13" cy="228.3" r="1.5"/><rect class="cls-12" x="459.66" y="358.68" width="23.98" height="8.99"/><path class="cls-12" d="M485.13,105.43a6,6,0,0,0-6,6h0a16.48,16.48,0,0,1-16.49-16.49V90.44h-3v9a28.47,28.47,0,0,0,56.94,0v-9h-3v4.5a16.48,16.48,0,0,1-16.48,16.49h0a6,6,0,0,0-6-6"/><rect class="cls-12" x="492.62" y="358.68" width="23.98" height="8.99"/><path class="cls-28" d="M458.16,367.67l-4.5,4.49h-1.5a7.49,7.49,0,0,0-7.49,7.5v1.5h39v-15H458.16Z"/><rect class="cls-22" x="444.67" y="381.16" width="38.96" height="3"/><path class="cls-22" d="M444.67,379.66a7.5,7.5,0,1,1,15,0"/><rect class="cls-30" x="444.67" y="379.66" width="38.96" height="1.5"/><circle class="cls-28" cx="462.65" cy="366.17" r="4.5"/><path class="cls-28" d="M518.1,367.67l4.5,4.49h1.49a7.5,7.5,0,0,1,7.5,7.5v1.5h-39v-15H518.1Z"/><rect class="cls-22" x="492.62" y="381.16" width="38.96" height="3" transform="translate(1024.21 765.31) rotate(-180)"/><path class="cls-22" d="M531.59,379.66a7.5,7.5,0,1,0-15,0"/><rect class="cls-30" x="492.62" y="379.66" width="38.96" height="1.5" transform="translate(1024.21 760.81) rotate(-180)"/><circle class="cls-28" cx="513.6" cy="366.17" r="4.5"/><path class="cls-31" d="M516.65,79h-57.1a1.51,1.51,0,0,0-1.51,1.5l.06,9a1.51,1.51,0,0,0,1.51,1.5h57.1a1.51,1.51,0,0,0,1.51-1.5l-.06-9A1.51,1.51,0,0,0,516.65,79Z"/><path class="cls-32" d="M459.6,79.54a28.47,28.47,0,1,1,56.94,0"/><path class="cls-5" d="M491.13,105.42a3,3,0,0,1-6,0v-1.49h6"/><path class="cls-5" d="M488.13,117.4a6.84,6.84,0,0,1-4.79-1.91,1.5,1.5,0,1,1,2.08-2.15,3.93,3.93,0,0,0,5.41,0,1.5,1.5,0,0,1,2.09,2.15A6.86,6.86,0,0,1,488.13,117.4Z"/><polygon class="cls-19" points="458.16 244.79 462.65 235.8 458.16 235.8 458.16 244.79"/><path class="cls-8" d="M476.14,93.44a3,3,0,1,0,3,3A3,3,0,0,0,476.14,93.44Z"/><path class="cls-8" d="M500.12,93.44a3,3,0,1,0,3,3A3,3,0,0,0,500.12,93.44Z"/><polygon class="cls-7" points="465.65 154.88 477.64 154.88 477.64 166.86 471.64 169.86 465.65 166.86 465.65 154.88"/></g><rect class="cls-33" x="301.87" y="401.59" width="150.78" height="15.19" rx="6.5" ry="6.5"/><path d="M439.45,282.44v.09L428.39,391.84H409.91V300.48a2.74,2.74,0,0,0-2.69-2.73h-.09a2.73,2.73,0,0,0-2.69,2.73v91.36H387.05L376,282.53v-.09Z"/><path id="Path_14255" data-name="Path 14255" class="cls-9" d="M438.79,201.32a14.29,14.29,0,0,1-5.48-11V165.68h-52v24.68a14.29,14.29,0,0,1-5.48,11,14.32,14.32,0,0,0-5.48,11v9.6h73.86v-9.6A14,14,0,0,0,438.79,201.32Z"/><path class="cls-34" d="M449.93,244.13a8.21,8.21,0,0,1-7.35-4.54l-13-26H412.73a8.44,8.44,0,0,1-8.55-8,8.21,8.21,0,0,1,8.21-8.46h24.27a5,5,0,0,1,4.47,2.77l16,32a8.41,8.41,0,0,1-3.05,11A8.18,8.18,0,0,1,449.93,244.13Z"/><path class="cls-24" d="M426.45,197.21v23.3H388.14v-23.3h7.58a2.88,2.88,0,0,0,2.77-3v-6.1H416v6.1a2.88,2.88,0,0,0,2.76,3Z"/><path id="Path_14256" data-name="Path 14256" class="cls-35" d="M427,197.52l-9.33,18.55a11.09,11.09,0,0,1-10,6.13h0a11.09,11.09,0,0,1-10-6.13l-9.33-18.55L376,218.08v64.36h63.46v-59.1Z"/><path id="Path_14257" data-name="Path 14257" class="cls-34" d="M373.39,257.61l14.68-29.43V197.13a9.48,9.48,0,0,0-8.55,5.32l-23.23,46.61a9.24,9.24,0,0,0-1.05,4.28"/><path id="Path_14259" data-name="Path 14259" class="cls-34" d="M388.15,197.21v75.32H373.07v-47.9Z"/><path id="Path_14260" data-name="Path 14260" class="cls-34" d="M426.45,197.21v75.32h13.43l.2-52.2-6-23Z"/><path id="Path_14265" data-name="Path 14265" class="cls-36" d="M386.77,391.64l-1.37-13.71h19.12v13.71Z"/><circle id="Ellipse_1352" data-name="Ellipse 1352" class="cls-24" cx="407.26" cy="165.68" r="26.05"/><path id="Path_14268" data-name="Path 14268" class="cls-9" d="M407.26,139.71a26,26,0,0,0-26.05,26v0l8.23-8.23a9.56,9.56,0,0,0,9.54,9.6h34.33v-1.36a26,26,0,0,0-26-26.06Z"/><path class="cls-8" d="M393.5,172.62v0a2.5,2.5,0,0,0,1.22,2.22,2.78,2.78,0,1,0-1.22-2.24Z"/><path class="cls-8" d="M415.38,172.64h0a2.5,2.5,0,0,0,1.22,2.22,2.79,2.79,0,1,0-1.22-2.22Z"/><path id="Path_14271" data-name="Path 14271" class="cls-5" d="M404.52,178a2.74,2.74,0,0,0,5.48,0"/><path id="Path_14272" data-name="Path 14272" class="cls-5" d="M407.26,189a12,12,0,0,1-9.28-4.59,1.38,1.38,0,0,1,2.1-1.78,9.22,9.22,0,0,0,7.18,3.63,1.41,1.41,0,0,1,1.36,1.37,1.3,1.3,0,0,1-1.24,1.37A.24.24,0,0,1,407.26,189Z"/><path id="Path_14273" data-name="Path 14273" class="cls-37" d="M381.29,399.87l5.48-5.48v-2.75a4.12,4.12,0,0,1,8.23,0h9.6v15.08H381.29Z"/><path id="Path_14275" data-name="Path 14275" class="cls-36" d="M427.82,391.64l1.36-13.71H410v13.71Z"/><path id="Path_14276" data-name="Path 14276" class="cls-37" d="M433.31,399.87l-5.49-5.48v-2.75a4.11,4.11,0,1,0-8.22,0H410v15.08h23.31Z"/><path id="Path_14277" data-name="Path 14277" class="cls-38" d="M374.44,406.72a6.86,6.86,0,0,1,13.71,0h0"/><rect id="Rectangle_9888" data-name="Rectangle 9888" class="cls-38" x="374.44" y="405.63" width="30.16" height="3.84"/><path id="Path_14278" data-name="Path 14278" class="cls-38" d="M440.16,406.72a6.86,6.86,0,0,0-13.71,0"/><rect id="Rectangle_9889" data-name="Rectangle 9889" class="cls-38" x="410" y="405.63" width="30.16" height="3.84"/><rect id="Rectangle_9890" data-name="Rectangle 9890" class="cls-6" x="373.07" y="269.79" width="15.08" height="2.74"/><rect id="Rectangle_9891" data-name="Rectangle 9891" class="cls-6" x="426.45" y="269.79" width="15.08" height="2.74"/><path id="Path_14261" data-name="Path 14261" class="cls-24" d="M393.55,235.52a2.72,2.72,0,0,1-2.74-2.7v0a6.84,6.84,0,0,1,6.84-6.85h0a2.74,2.74,0,1,1,0,5.48h0a1.41,1.41,0,0,0-1.36,1.37,2.73,2.73,0,0,1-2.69,2.75Z"/><path id="Path_14264" data-name="Path 14264" class="cls-8" d="M411.47,210.23H397.4a2.77,2.77,0,0,0-2.81,2.73v30.6a2.77,2.77,0,0,0,2.77,2.77h14.11a2.76,2.76,0,0,0,2.81-2.73V213a2.76,2.76,0,0,0-2.76-2.78Z"/><path id="Path_14266" data-name="Path 14266" class="cls-6" d="M359.76,246a8.27,8.27,0,0,0-3.71,11.05,8.14,8.14,0,0,0,7.34,4.51,7.33,7.33,0,0,0,3.63-.88l22-11L381.69,235Z"/><path id="Path_14267" data-name="Path 14267" class="cls-24" d="M405.08,232.53A8.28,8.28,0,0,0,394,228.82L381.69,235,389,249.63l12.34-6.13a8.15,8.15,0,0,0,3.74-10.91Z"/><path id="Path_14279" data-name="Path 14279" class="cls-7" d="M381.69,235,378,236.89l7.43,14.68,3.63-1.86,3.71-1.77-7.34-14.76Z"/><path id="Path_14283" data-name="Path 14283" class="cls-12" d="M410,215.06a1.37,1.37,0,0,1,0-2.74h1.37a1.37,1.37,0,0,1,0,2.74Z"/><circle id="Ellipse_1355" data-name="Ellipse 1355" class="cls-39" cx="411.37" cy="213.69" r="0.65"/><path class="cls-34" d="M445.2,274.08a8.41,8.41,0,0,1-1.93-.11,8.21,8.21,0,0,1-6.66-9.51l5.23-29.7A8.21,8.21,0,0,1,458,237.61l-5.23,29.7A8.22,8.22,0,0,1,445.2,274.08Z"/><path class="cls-24" d="M437.4,278.36a8.21,8.21,0,0,1-3.68-15.56l7-3.52A8.21,8.21,0,0,1,448.1,274l-7,3.52A8.16,8.16,0,0,1,437.4,278.36Z"/><path class="cls-8" d="M354,332.17a2.27,2.27,0,0,1-2.27,2.28,2.27,2.27,0,0,0,2.27,2.27,4.55,4.55,0,0,1-4.54,4.55,4.54,4.54,0,0,0,4.54,4.54h9.1V329.9H354Z"/><path class="cls-8" d="M390.35,332.17a2.28,2.28,0,0,0,2.28,2.28,2.28,2.28,0,0,1-2.28,2.27,4.55,4.55,0,0,0,4.55,4.55,4.54,4.54,0,0,1-4.55,4.54h-9.09V329.9h9.09Z"/><path class="cls-12" d="M356.26,323.84a6.82,6.82,0,0,1,6.82,6.82H349.44a6.82,6.82,0,0,1,6.82-6.82"/><path class="cls-12" d="M388.08,323.84a6.82,6.82,0,0,0-6.82,6.82H394.9a6.82,6.82,0,0,0-6.82-6.82"/><path class="cls-12" d="M390.35,350.36a2.28,2.28,0,0,0,2.28-2.27,2.28,2.28,0,0,1-2.28-2.28,18.19,18.19,0,0,0-36.37,0,2.27,2.27,0,0,1-2.27,2.28,2.27,2.27,0,0,0,2.27,2.27,4.55,4.55,0,0,1-4.54,4.55,4.54,4.54,0,0,0,4.54,4.54v-2.27h36.37v2.27a4.54,4.54,0,0,0,4.55-4.54A4.55,4.55,0,0,1,390.35,350.36Z"/><path class="cls-5" d="M363.08,407.19a2.27,2.27,0,0,1,2.27,2.27v2.28a2.27,2.27,0,0,1-2.27,2.27h-6.82a2.28,2.28,0,0,1-2.28-2.27V393.55h9.1Z"/><path class="cls-5" d="M326.7,414a2.28,2.28,0,0,0,2.28-2.27v-2.28a2.28,2.28,0,0,0-2.28-2.27V393.55h-9.09v18.19a2.27,2.27,0,0,0,2.27,2.27Z"/><path class="cls-5" d="M392.63,411.74a2.28,2.28,0,0,1-2.28,2.27h-6.82a2.27,2.27,0,0,1-2.27-2.27V395.82h9.09v11.37a2.28,2.28,0,0,1,2.28,2.27Z"/><path class="cls-8" d="M381.26,404.92a2.27,2.27,0,0,1-2.27-2.28,2.28,2.28,0,0,0-2.28,2.28,4.55,4.55,0,0,1-4.54-4.55,4.55,4.55,0,0,0-4.55,4.55,4.55,4.55,0,0,1-4.54-4.55,2.28,2.28,0,0,1-2.28-2.27,2.27,2.27,0,0,0-2.27,2.27,2.27,2.27,0,0,1-2.27-2.27,2.27,2.27,0,0,0-2.28,2.27v4.55a4.55,4.55,0,0,1-4.54-4.55,2.28,2.28,0,0,0-2.28,2.27,2.27,2.27,0,0,1-2.27-2.27,4.55,4.55,0,0,0-4.55,4.55,4.55,4.55,0,0,1-4.54-4.55,4.54,4.54,0,0,0-4.55,4.55,4.55,4.55,0,0,1-4.55-4.55v-4.55a4.55,4.55,0,0,0-4.54,4.55,2.28,2.28,0,0,1-2.28-2.27,2.27,2.27,0,0,0-2.27,2.27V377.64a4.55,4.55,0,0,1-4.55,4.55v-4.55a18.18,18.18,0,0,1,18.19-18.19H354l2.28-4.54h31.82l2.27,2.27v38.64a2.28,2.28,0,0,0-2.27,2.28,2.27,2.27,0,0,1-2.27-2.28,4.55,4.55,0,0,0-4.55,4.55v4.55"/><circle class="cls-8" cx="363.08" cy="341.27" r="2.27"/><circle class="cls-8" cx="381.26" cy="341.27" r="2.27"/><path class="cls-24" d="M379,361.73a6.82,6.82,0,0,0,6.82-6.82,4.54,4.54,0,0,0,4.54,4.54,18.19,18.19,0,0,0-36.37,0,4.54,4.54,0,0,0,4.55-4.54,6.82,6.82,0,0,0,6.82,6.82"/><path class="cls-12" d="M367.62,348.09a4.55,4.55,0,0,0,9.09,0,2.27,2.27,0,0,0-2.27-2.28H369.9A2.28,2.28,0,0,0,367.62,348.09Z"/><path class="cls-5" d="M372.17,354.91a6.82,6.82,0,0,0-6.82,6.82,2.27,2.27,0,0,0,2.27,2.27h9.09a2.28,2.28,0,0,0,2.28-2.27A6.82,6.82,0,0,0,372.17,354.91Z"/></svg>